<svg width="48" height="48" viewBox="0 0 48 48" fill="none" xmlns="http://www.w3.org/2000/svg">
<path d="M33.1406 14.5331C33.1406 14.3646 33.2777 14.2267 33.4453 14.2267H38.3203C38.4879 14.2267 38.625 14.3646 38.625 14.5331V16.3718C38.625 16.5404 38.4879 16.6783 38.3203 16.6783H33.4453C33.2777 16.6783 33.1406 16.5404 33.1406 16.3718V14.5331Z" fill="black" fill-opacity="0.25"/>
<path d="M33.1406 18.8234C33.1406 18.6549 33.2777 18.517 33.4453 18.517H38.3203C38.4879 18.517 38.625 18.6549 38.625 18.8234V20.6621C38.625 20.8307 38.4879 20.9686 38.3203 20.9686H33.4453C33.2777 20.9686 33.1406 20.8307 33.1406 20.6621V18.8234Z" fill="black" fill-opacity="0.25"/>
<path d="M33.1406 23.1137C33.1406 22.9452 33.2777 22.8073 33.4453 22.8073H38.3203C38.4879 22.8073 38.625 22.9452 38.625 23.1137V24.9524C38.625 25.121 38.4879 25.2589 38.3203 25.2589H33.4453C33.2777 25.2589 33.1406 25.121 33.1406 24.9524V23.1137Z" fill="black" fill-opacity="0.25"/>
<path d="M33.1406 27.404C33.1406 27.2355 33.2777 27.0976 33.4453 27.0976H38.3203C38.4879 27.0976 38.625 27.2355 38.625 27.404V29.2427C38.625 29.4113 38.4879 29.5492 38.3203 29.5492H33.4453C33.2777 29.5492 33.1406 29.4113 33.1406 29.2427V27.404Z" fill="black" fill-opacity="0.25"/>
<path d="M33.1406 31.6943C33.1406 31.5258 33.2777 31.3879 33.4453 31.3879H38.3203C38.4879 31.3879 38.625 31.5258 38.625 31.6943V33.533C38.625 33.7016 38.4879 33.8395 38.3203 33.8395H33.4453C33.2777 33.8395 33.1406 33.7016 33.1406 33.533V31.6943Z" fill="black" fill-opacity="0.25"/>
<path fill-rule="evenodd" clip-rule="evenodd" d="M26.4375 8.09769H42.2812C42.9554 8.09769 43.5 8.64547 43.5 9.32349V38.7427C43.5 39.4207 42.9554 39.9685 42.2812 39.9685H26.4375V40.6734C26.4375 42.2133 25.0397 43.3739 23.5354 43.079L6.47285 39.7425C5.32646 39.5203 4.5 38.509 4.5 37.3369V10.7255C4.5 9.55333 5.32266 8.54588 6.46523 8.31987L23.5277 4.9221C25.0321 4.62331 26.4375 5.78399 26.4375 7.32774V8.09769ZM12.5095 24.3549L9.63779 29.7982C9.53877 29.9821 9.64922 30.2081 9.85107 30.254L11.4888 30.5413C11.7592 30.5911 12.0258 30.4532 12.1438 30.2042L13.9453 26.4349C14.0862 26.0365 14.1776 25.7339 14.2195 25.5194H14.25C14.3338 25.9599 14.4138 26.2664 14.4899 26.4387L16.6418 31.1772C16.7256 31.3611 16.8932 31.4913 17.0912 31.5258L19.8601 32.0161C20.1114 32.0583 20.3057 31.7901 20.18 31.5641L16.1886 24.3242C16.0896 24.1404 16.0896 23.9144 16.1886 23.7305L20.0695 16.6247C20.1914 16.3987 20.001 16.1305 19.7496 16.1765L17.194 16.6285C16.996 16.663 16.8284 16.7932 16.7446 16.9771L14.7604 21.3134C14.6004 21.7462 14.4671 22.1523 14.3604 22.5353H14.33C14.2271 22.1216 14.1053 21.75 13.9644 21.413L12.4828 17.9424C12.3686 17.6819 12.0943 17.5325 11.8163 17.5823L10.0948 17.8849C9.89678 17.9194 9.78633 18.1378 9.87393 18.3216L12.5209 23.7994C12.6047 23.9756 12.6009 24.1825 12.5095 24.3549ZM40.7578 37.5169C40.9254 37.5169 41.0625 37.379 41.0625 37.2105V10.8557C41.0625 10.6872 40.9254 10.5493 40.7578 10.5493H26.4375V13.9202C26.4375 14.0888 26.5746 14.2267 26.7422 14.2267H30.3984C30.566 14.2267 30.7031 14.3646 30.7031 14.5331V16.3718C30.7031 16.5404 30.566 16.6783 30.3984 16.6783H26.7422C26.5746 16.6783 26.4375 16.8162 26.4375 16.9847V18.2106C26.4375 18.3791 26.5746 18.517 26.7422 18.517H30.3984C30.566 18.517 30.7031 18.6549 30.7031 18.8235V20.6622C30.7031 20.8307 30.566 20.9686 30.3984 20.9686H26.7422C26.5746 20.9686 26.4375 21.1065 26.4375 21.2751V22.5009C26.4375 22.6694 26.5746 22.8073 26.7422 22.8073H30.3984C30.566 22.8073 30.7031 22.9452 30.7031 23.1138V24.9525C30.7031 25.121 30.566 25.2589 30.3984 25.2589H26.7422C26.5746 25.2589 26.4375 25.3968 26.4375 25.5654V26.7912C26.4375 26.9597 26.5746 27.0976 26.7422 27.0976H30.3984C30.566 27.0976 30.7031 27.2355 30.7031 27.4041V29.2428C30.7031 29.4113 30.566 29.5492 30.3984 29.5492H26.7422C26.5746 29.5492 26.4375 29.6871 26.4375 29.8557V31.0815C26.4375 31.25 26.5746 31.3879 26.7422 31.3879H30.3984C30.566 31.3879 30.7031 31.5258 30.7031 31.6944V33.5331C30.7031 33.7016 30.566 33.8395 30.3984 33.8395H26.7422C26.5746 33.8395 26.4375 33.9774 26.4375 34.146V37.5169H40.7578Z" fill="black" fill-opacity="0.25"/>
</svg>
