<svg width="100" height="100" viewBox="0 0 100 100" fill="none" xmlns="http://www.w3.org/2000/svg">
    <style>
        #path-f {
        fill: none;
        stroke: #f0f5ff;
        stroke-width: 6;
        stroke-dasharray: 52 185;
        animation: dash 57s infinite linear forwards;
        }

        #path-b {
        fill: none;
        stroke: #2f54eb;
        stroke-width: 5;
        stroke-linecap: round;
        stroke-linejoin: round;
        }

        @keyframes dash {
        to {
        stroke-dashoffset: -12000;
        }
        }
    </style>
    <path d="M34.6627 82.0465L34.6609 82.045C24.5794 73.8357 19.5 64.0637 19.5 53.82V21.9444C21.6733 21.1302 23.9482 20.0101 25.7406 18.856C26.6643 18.2612 27.5446 17.6035 28.2255 16.9164C28.5663 16.5726 28.9136 16.1652 29.1884 15.7001C29.4 15.3417 29.6271 14.8502 29.711 14.26L50.0002 8.59556L70.298 14.2598C70.381 14.8553 70.6104 15.3502 70.8228 15.7091C71.0973 16.1727 71.444 16.5788 71.7839 16.9215C72.4631 17.6065 73.3413 18.2631 74.2632 18.8576C76.0534 20.0122 78.3267 21.1353 80.5 21.9542V53.82C80.5 64.0517 75.4116 73.8248 65.3373 82.0465C61.5599 85.1285 57.7887 87.4242 54.919 88.9646C53.4867 89.7334 52.2861 90.3103 51.431 90.6997C51.0036 90.8944 50.6632 91.0419 50.4241 91.1429C50.3046 91.1934 50.2106 91.2321 50.1441 91.2592C50.1108 91.2727 50.0846 91.2833 50.0658 91.2908L50.0436 91.2996L50.0356 91.3027L50.032 91.3041L50 91.3166L49.9873 91.3117C49.9865 91.3113 49.9856 91.3109 49.9847 91.3106C49.3013 91.0304 42.01 88.041 34.6627 82.0465Z" id="path-b"/>
    <path d="M34.6627 82.0465L34.6609 82.045C24.5794 73.8357 19.5 64.0637 19.5 53.82V21.9444C21.6733 21.1302 23.9482 20.0101 25.7406 18.856C26.6643 18.2612 27.5446 17.6035 28.2255 16.9164C28.5663 16.5726 28.9136 16.1652 29.1884 15.7001C29.4 15.3417 29.6271 14.8502 29.711 14.26L50.0002 8.59556L70.298 14.2598C70.381 14.8553 70.6104 15.3502 70.8228 15.7091C71.0973 16.1727 71.444 16.5788 71.7839 16.9215C72.4631 17.6065 73.3413 18.2631 74.2632 18.8576C76.0534 20.0122 78.3267 21.1353 80.5 21.9542V53.82C80.5 64.0517 75.4116 73.8248 65.3373 82.0465C61.5599 85.1285 57.7887 87.4242 54.919 88.9646C53.4867 89.7334 52.2861 90.3103 51.431 90.6997C51.0036 90.8944 50.6632 91.0419 50.4241 91.1429C50.3046 91.1934 50.2106 91.2321 50.1441 91.2592C50.1108 91.2727 50.0846 91.2833 50.0658 91.2908L50.0436 91.2996L50.0356 91.3027L50.032 91.3041L50 91.3166L49.9873 91.3117C49.9865 91.3113 49.9856 91.3109 49.9847 91.3106C49.3013 91.0304 42.01 88.041 34.6627 82.0465Z" id="path-f"/>
</svg>
