<?xml version="1.0" standalone="no"?><!DOCTYPE svg PUBLIC "-//W3C//DTD SVG 1.1//EN" "http://www.w3.org/Graphics/SVG/1.1/DTD/svg11.dtd"><svg t="1672988483403" class="icon" viewBox="0 0 1024 1024" version="1.1" xmlns="http://www.w3.org/2000/svg" p-id="5817" xmlns:xlink="http://www.w3.org/1999/xlink" width="200" height="200"><path d="M640 96l224 224v512a128 128 0 0 1-128 128H288a128 128 0 0 1-128-128V224a128 128 0 0 1 128-128h352z" fill="#2AD259" p-id="5818"></path><path d="M640 96v96a128 128 0 0 0 128 128h96l-224-224z" fill="#000000" fill-opacity=".15" p-id="5819"></path><path d="M538.656 587.904l90.496-153.216h-49.28l-67.648 125.44-67.648-125.44h-51.968l91.392 155.904L383.648 768h49.728l77.504-147.392L587.936 768h52.416l-101.696-180.096z" fill="#FFFFFF" p-id="5820"></path></svg>