<?xml version="1.0" standalone="no"?><!DOCTYPE svg PUBLIC "-//W3C//DTD SVG 1.1//EN" "http://www.w3.org/Graphics/SVG/1.1/DTD/svg11.dtd"><svg t="1672988498511" class="icon" viewBox="0 0 1024 1024" version="1.1" xmlns="http://www.w3.org/2000/svg" p-id="6365" xmlns:xlink="http://www.w3.org/1999/xlink" width="200" height="200"><path d="M640 96l224 224v512a128 128 0 0 1-128 128H288a128 128 0 0 1-128-128V224a128 128 0 0 1 128-128h352z" fill="#A0A3AF" p-id="6366"></path><path d="M640 96v96a128 128 0 0 0 128 128h96l-224-224z" fill="#010101" fill-opacity=".15" p-id="6367"></path><path d="M524.896 681.184h-40.672c0.128-13.984 1.376-25.44 3.712-34.336 2.496-9.056 6.496-17.28 12.032-24.736 5.536-7.424 12.896-15.872 22.08-25.376 6.72-6.848 12.832-13.248 18.4-19.232 5.664-6.144 10.272-12.704 13.76-19.68 3.52-7.168 5.248-15.68 5.248-25.6a57.6 57.6 0 0 0-5.44-26.048 37.44 37.44 0 0 0-15.776-16.832c-6.848-3.936-15.36-5.92-25.6-5.92-8.448 0-16.448 1.536-24.032 4.608a41.408 41.408 0 0 0-18.4 14.208c-4.672 6.272-7.04 14.528-7.2 24.736h-40.48c0.32-16.48 4.384-30.624 12.256-42.432 8-11.84 18.816-20.864 32.384-27.136A107.2 107.2 0 0 1 512.64 448c18.56 0 34.304 3.36 47.264 10.08 13.12 6.72 23.104 16.32 29.984 28.864 6.848 12.384 10.24 27.104 10.24 44.16 0 13.12-2.656 25.28-8.064 36.32a139.392 139.392 0 0 1-20.352 30.848c-8.32 9.632-17.12 18.816-26.464 27.584-8 7.424-13.44 15.808-16.192 25.152a105.6 105.6 0 0 0-4.16 30.176z m-42.432 69.344c0-6.56 2.048-12.096 6.144-16.64 4.064-4.48 9.984-6.752 17.696-6.752 7.872 0 13.856 2.24 17.92 6.784a23.904 23.904 0 0 1 6.144 16.64 23.36 23.36 0 0 1-6.112 16.16c-4.096 4.512-10.08 6.784-17.92 6.784-7.744 0-13.664-2.24-17.728-6.784a23.36 23.36 0 0 1-6.144-16.192z" fill="#FFFFFF" p-id="6368"></path></svg>