<?xml version="1.0" standalone="no"?><!DOCTYPE svg PUBLIC "-//W3C//DTD SVG 1.1//EN" "http://www.w3.org/Graphics/SVG/1.1/DTD/svg11.dtd"><svg t="1672988508066" class="icon" viewBox="0 0 1024 1024" version="1.1" xmlns="http://www.w3.org/2000/svg" p-id="6502" xmlns:xlink="http://www.w3.org/1999/xlink" width="200" height="200"><path d="M640 96l224 224v512a128 128 0 0 1-128 128H288a128 128 0 0 1-128-128V224a128 128 0 0 1 128-128h352z" fill="#F66650" p-id="6503"></path><path d="M715.136 656.64c-9.312-11.04-28.448-16.416-58.432-16.416-17.408 0-38.496 1.824-62.624 5.472-65.92-48.192-84.32-101.376-84.32-101.376s11.264-28.672 11.968-75.456c0.448-29.6-4.128-49.568-15.968-61.152a29.344 29.344 0 0 0-19.648-7.424 26.016 26.016 0 0 0-15.52 4.896c-34.24 25.088 3.136 143.296 4.16 146.432a1057.6 1057.6 0 0 1-57.504 119.04c-6.816 12.032-6.176 11.072-11.904 20.864 0 0-57.984 27.232-86.112 60.704-15.904 18.88-17.92 31.68-17.056 41.376v0.224c1.344 11.456 16 21.888 30.752 21.888l1.856-0.064c14.976-0.96 31.424-11.584 50.24-32.576 12.416-13.888 28.576-38.272 48-72.544 55.744-15.84 104.8-27.168 145.92-33.6 30.176 16.224 75.04 34.624 105.568 34.624 10.24 0 18.496-2.112 24.48-6.208 7.2-4.928 10.24-11.072 12.16-22.432 1.888-11.36-0.768-20-6.016-26.24z m-65.12 13.856c26.784 0 41.28 3.904 48.768 7.168a31.68 31.68 0 0 1 5.12 2.816c-2.08 1.312-6.208 3.04-13.664 3.04-12.384 0-28.64-4.352-48.48-12.896 2.816-0.096 5.568-0.128 8.256-0.128z m-158.88-246.496l0.064-0.096c5.76 3.008 8.448 24.288 7.904 36.608-0.736 16.544-0.896 22.944-3.808 33.088-7.872-21.184-8.416-59.264-4.16-69.6z m2.112 167.744a295.072 295.072 0 0 0 52.896 62.72c-37.696 7.968-73.92 17.92-96.448 25.728a753.856 753.856 0 0 0 43.552-88.448z m-155.2 189.312c3.264-5.44 12.224-16 34.88-36.416-15.552 23.36-26.944 36.096-38.528 44.032 0.96-2.496 2.176-5.12 3.648-7.616z" fill="#FFFFFF" p-id="6504"></path><path d="M640 96l224 224h-96a128 128 0 0 1-128-128V96z" fill="#DD5C48" p-id="6505"></path></svg>