<?xml version="1.0" standalone="no"?><!DOCTYPE svg PUBLIC "-//W3C//DTD SVG 1.1//EN" "http://www.w3.org/Graphics/SVG/1.1/DTD/svg11.dtd"><svg t="1672988493748" class="icon" viewBox="0 0 1024 1024" version="1.1" xmlns="http://www.w3.org/2000/svg" p-id="6228" xmlns:xlink="http://www.w3.org/1999/xlink" width="200" height="200"><path d="M640 96l224 224v512a128 128 0 0 1-128 128H288a128 128 0 0 1-128-128V224a128 128 0 0 1 128-128h352z" fill="#FE9142" p-id="6229"></path><path d="M640 96v96a128 128 0 0 0 128 128h96l-224-224z" fill="#010101" fill-opacity=".15" p-id="6230"></path><path d="M525.12 643.104h-85.088v-34.368h85.12c16.448 0 29.792-2.624 40-7.872 10.24-5.248 17.664-12.544 22.304-21.856 4.8-9.344 7.232-20 7.232-31.936 0-10.944-2.4-21.216-7.232-30.848a53.344 53.344 0 0 0-22.304-23.2c-10.208-5.984-23.552-8.96-40-8.96h-75.264V768h-42.24v-318.496h117.472c24.064 0 44.416 4.16 61.024 12.48 16.64 8.32 29.248 19.84 37.856 34.56 8.608 14.56 12.896 31.264 12.896 50.08 0 20.416-4.288 37.856-12.896 52.288-8.608 14.432-21.216 25.44-37.856 33.024-16.64 7.424-36.96 11.168-61.024 11.168z" fill="#FFFFFF" p-id="6231"></path></svg>