<?xml version="1.0" standalone="no"?><!DOCTYPE svg PUBLIC "-//W3C//DTD SVG 1.1//EN" "http://www.w3.org/Graphics/SVG/1.1/DTD/svg11.dtd"><svg t="1672988487516" class="icon" viewBox="0 0 1024 1024" version="1.1" xmlns="http://www.w3.org/2000/svg" p-id="5954" xmlns:xlink="http://www.w3.org/1999/xlink" width="200" height="200"><path d="M640 96l224 224v512a128 128 0 0 1-128 128H288a128 128 0 0 1-128-128V224a128 128 0 0 1 128-128h352z" fill="#5172F8" p-id="5955"></path><path d="M640 96v96a128 128 0 0 0 128 128h96l-224-224z" fill="#010101" fill-opacity=".15" p-id="5956"></path><path d="M699.808 434.688h-42.112l-55.552 292.992-65.856-292.992h-48.832l-64.512 292.992-53.76-292.992h-44.8L392 768h57.792l61.824-279.104L573.024 768h59.136l67.648-333.312z" fill="#FFFFFF" p-id="5957"></path></svg>