<?xml version="1.0" standalone="no"?><!DOCTYPE svg PUBLIC "-//W3C//DTD SVG 1.1//EN" "http://www.w3.org/Graphics/SVG/1.1/DTD/svg11.dtd"><svg t="1672988490915" class="icon" viewBox="0 0 1024 1024" version="1.1" xmlns="http://www.w3.org/2000/svg" p-id="6091" xmlns:xlink="http://www.w3.org/1999/xlink" width="200" height="200"><path d="M640 96l224 224v512a128 128 0 0 1-128 128H288a128 128 0 0 1-128-128V224a128 128 0 0 1 128-128h352z" fill="#5172F8" p-id="6092"></path><path d="M640 96v96a128 128 0 0 0 128 128h96l-224-224z" fill="#010101" fill-opacity=".15" p-id="6093"></path><path d="M654.208 432c10.688 0 17.792 7.04 17.792 17.6v316.8c0 10.56-7.104 17.6-17.792 17.6h-284.416c-10.688 0-17.792-7.04-17.792-17.6v-316.8c0-10.56 7.104-17.6 17.792-17.6h284.416z m-99.52 208H512v42.656h-42.688v64h85.344V640zM512 597.312h-42.688V640H512v-42.688z m42.656-42.656H512v42.688h42.656v-42.688z m0.224-85.536H512V512h-42.688v42.656H512V512h42.88v-42.88z" fill="#FFFFFF" p-id="6094"></path></svg>